HIERARCHY
ROOT Hips
{
	OFFSET	0.00	0.00	0.00
	CHANNELS 6 Xposition Yposition Zposition Zrotation Xrotation Yrotation
	JOINT LeftUpLeg
	{
		OFFSET	 0.126116	-0.014019	-0.065224
		CHANNELS 3 Zrotation Xrotation Yrotation
		JOINT LeftLeg
		{
			OFFSET	 0.000000	 0.000000	 0.569914
			CHANNELS 3 Zrotation Xrotation Yrotation
			JOINT LeftFoot
			{
				OFFSET	 0.000000	 0.000000	 0.544423
				CHANNELS 3 Zrotation Xrotation Yrotation
				JOINT LeftToeBase
				{
					OFFSET	 0.000000	 0.000000	 0.207117
					CHANNELS 3 Zrotation Xrotation Yrotation
					End Site
					{
						OFFSET	 0.000000	 0.000000	 0.207117
					}
				}
			}
		}
	}
	JOINT RightUpLeg
	{
		OFFSET	-0.124023	-0.008373	-0.065224
		CHANNELS 3 Zrotation Xrotation Yrotation
		JOINT RightLeg
		{
			OFFSET	 0.000000	 0.000000	 0.570047
			CHANNELS 3 Zrotation Xrotation Yrotation
			JOINT RightFoot
			{
				OFFSET	 0.000000	 0.000000	 0.544354
				CHANNELS 3 Zrotation Xrotation Yrotation
				JOINT RightToeBase
				{
					OFFSET	 0.000000	 0.000000	 0.207540
					CHANNELS 3 Zrotation Xrotation Yrotation
					End Site
					{
						OFFSET	 0.000000	 0.000000	 0.207540
					}
				}
			}
		}
	}
	JOINT Spine
	{
		OFFSET	 0.000184	-0.007763	 0.117403
		CHANNELS 3 Zrotation Xrotation Yrotation
		JOINT Spine1
		{
			OFFSET	 0.000000	 0.000000	 0.137269
			CHANNELS 3 Zrotation Xrotation Yrotation
			JOINT Spine2
			{
				OFFSET	 0.000000	 0.000000	 0.156879
				CHANNELS 3 Zrotation Xrotation Yrotation
				JOINT LeftShoulder
				{
					OFFSET	 0.080501	-0.002496	 0.160144
					CHANNELS 3 Zrotation Xrotation Yrotation
					JOINT LeftArm
					{
						OFFSET	 0.000000	 0.000000	 0.164363
						CHANNELS 3 Zrotation Xrotation Yrotation
						JOINT LeftForeArm
						{
							OFFSET	 0.000000	 0.000000	 0.364576
							CHANNELS 3 Zrotation Xrotation Yrotation
							JOINT LeftHand
							{
								OFFSET	 0.000000	 0.000000	 0.360812
								CHANNELS 3 Zrotation Xrotation Yrotation
								JOINT LeftHandIndex1
								{
									OFFSET	 0.000000	 0.000000	 0.086006
									CHANNELS 3 Zrotation Xrotation Yrotation
									JOINT LeftHandIndex2
									{
										OFFSET	 0.000000	 0.000000	 0.047236
										CHANNELS 3 Zrotation Xrotation Yrotation
										JOINT LeftHandIndex3
										{
											OFFSET	-0.004284	-0.000551	 0.038166
											CHANNELS 3 Zrotation Xrotation Yrotation
											End Site
											{
												OFFSET	-0.004284	-0.000551	 0.038166
											}
										}
									}
								}
							}
						}
					}
				}
				JOINT Neck
				{
					OFFSET	 0.000000	 0.000000	 0.176489
					CHANNELS 3 Zrotation Xrotation Yrotation
					JOINT Head
					{
						OFFSET	 0.000000	-0.001747	 0.077940
						CHANNELS 3 Zrotation Xrotation Yrotation
						End Site
						{
							OFFSET	 0.000000	-0.001747	 0.077940
						}
					}
				}
				JOINT RightShoulder
				{
					OFFSET	-0.080363	 0.000306	 0.159706
					CHANNELS 3 Zrotation Xrotation Yrotation
					JOINT RightArm
					{
						OFFSET	 0.000000	 0.000000	 0.164196
						CHANNELS 3 Zrotation Xrotation Yrotation
						JOINT RightForeArm
						{
							OFFSET	 0.000000	 0.000000	 0.365611
							CHANNELS 3 Zrotation Xrotation Yrotation
							JOINT RightHand
							{
								OFFSET	 0.000000	 0.000000	 0.360648
								CHANNELS 3 Zrotation Xrotation Yrotation
								JOINT RightHandIndex1
								{
									OFFSET	 0.000000	 0.000000	 0.069977
									CHANNELS 3 Zrotation Xrotation Yrotation
									JOINT RightHandIndex2
									{
										OFFSET	 0.000000	 0.000000	 0.052305
										CHANNELS 3 Zrotation Xrotation Yrotation
										JOINT RightHandIndex3
										{
											OFFSET	 0.009002	-0.000782	 0.042196
											CHANNELS 3 Zrotation Xrotation Yrotation
											End Site
											{
												OFFSET	 0.009002	-0.000782	 0.042196
											}
										}
									}
								}
							}
						}
					}
				}
			}
		}
	}
}
MOTION
Frames:    6
Frame Time: 0.03333334
-0.034688	 0.237320	 1.073237	 2.260314	 32.500800	-7.319369	 41.845340	-76.011970	-144.496800	 4.921546	-66.618840	 4.901980	 32.109850	 73.058360	-40.159070	-2.385832	 28.452790	-0.000001	 32.176610	-80.856990	-145.593900	-14.710940	-69.612240	-8.975571	-2.075670	 72.267590	 22.485920	 2.384659	 28.388700	-0.000001	 19.402240	 13.894540	 0.735810	-1.844039	 20.714780	 1.458354	-3.285066	-3.291170	 3.200174	-98.910550	 68.338200	 157.360800	 4.410930	-6.752034	-50.784060	-0.087854	-0.713770	-6.015604	-7.756479	-63.847900	 1.142262	-2.027600	 6.559038	 9.033609	-5.188889	 0.308190	 3.541030	-5.234859	 0.342567	 0.430617	-0.084998	 14.775930	-4.965537	-2.127799	-25.836430	-2.201406	 97.294400	 64.467940	-159.766800	-13.612710	 7.487231	 63.210020	-13.745060	-2.959351	 24.611010	-13.008990	-61.482220	-7.749646	 1.803333	 3.979147	-15.098590	 4.898592	 3.004813	-9.310344	 5.224449	 0.395017	 2.014677
-0.030550	 0.235151	 1.100107	 2.185437	 30.584230	-6.655824	 33.745110	-72.107460	-152.815500	 4.051671	-62.682490	 3.971603	 29.410790	 71.599680	-37.239120	-2.385832	 28.452790	-0.000001	 14.966970	-77.117680	-161.641300	-13.624200	-65.686460	-7.735517	-1.609627	 70.943730	 21.937310	 2.384659	 28.388700	-0.000001	 13.188480	 13.352320	 0.482282	-1.390699	 20.898280	 0.869571	-3.829708	-4.711894	 2.804341	-98.043530	 69.377030	 158.513600	 5.388175	-2.623648	-52.003880	 4.338720	-1.696031	-8.601607	-6.214177	-60.911990	 1.078420	-2.027600	 6.559038	 9.033609	-5.188889	 0.308190	 3.541030	-5.234859	 0.342567	 0.430617	-0.742559	 8.066578	-3.423146	-2.968405	-19.174750	-2.879729	 96.893150	 64.155970	-161.101400	-15.494000	 7.664167	 60.397840	-16.140260	-5.860137	 32.851540	-14.185580	-57.741680	-5.849854	 1.803333	 3.979147	-15.098590	 4.898592	 3.004813	-9.310344	 5.224449	 0.395017	 2.014677
-0.025847	 0.232107	 1.126991	 2.065141	 28.547820	-5.764392	 28.427710	-67.869380	-158.596500	 3.582068	-58.732840	 3.419334	 27.191230	 70.248230	-34.733330	-2.385833	 28.452760	 0.000004	 4.966522	-72.622920	-170.533500	-13.069510	-61.644240	-6.982582	-0.831105	 69.752620	 21.166320	 2.384659	 28.388700	-0.000001	 6.287723	 12.788430	 0.167165	-0.992948	 21.210850	 0.298662	-4.363348	-6.459849	 2.372111	-96.438780	 71.870610	 159.688100	 6.647118	 2.613859	-53.770200	 8.586700	-2.938078	-10.924540	-6.345932	-56.559420	-1.577703	-2.027600	 6.559038	 9.033609	-5.188889	 0.308190	 3.541030	-5.234859	 0.342567	 0.430617	-1.154031	 0.083469	-2.307863	-3.601458	-11.363080	-3.152987	 96.145520	 65.241680	-162.157300	-17.569130	 9.883095	 58.693170	-18.453440	-9.608658	 40.055780	-15.071400	-52.450680	-3.226456	 1.803333	 3.979147	-15.098590	 4.898592	 3.004813	-9.310344	 5.224449	 0.395017	 2.014677
-0.021005	 0.227578	 1.156762	 1.945213	 25.965810	-4.653131	 23.674220	-62.646280	-163.956500	 3.568526	-54.139610	 3.231473	 24.151330	 68.861860	-31.442630	-2.385833	 28.452750	 0.000004	-2.014838	-66.773400	-176.335000	-11.825370	-56.909860	-5.603381	-0.671719	 68.707600	 20.425090	 2.384659	 28.388700	-0.000001	-1.928921	 12.244160	-0.109507	-0.436943	 21.574490	-0.452947	-4.949525	-8.625212	 1.972725	-93.675830	 76.053630	 160.817000	 8.662650	 9.224546	-57.050360	 13.192220	-4.569982	-13.241700	-6.401654	-50.250290	-5.651509	-2.027600	 6.559038	 9.033609	-5.188889	 0.308190	 3.541030	-5.234859	 0.342567	 0.430617	-1.543372	-10.068770	-2.441870	-4.036497	-1.582682	-2.307122	 94.758960	 67.954480	-163.568400	-20.179660	 13.682020	 58.557080	-20.262410	-14.343180	 47.332050	-15.912270	-45.634830	 0.041484	 1.803333	 3.979147	-15.098590	 4.898592	 3.004813	-9.310344	 5.224449	 0.395017	 2.014677
-0.017279	 0.220568	 1.182850	 2.343266	 23.937540	-3.912411	 20.566110	-57.875840	-167.282000	 3.664680	-49.638360	 3.073143	 21.446070	 67.584470	-28.322370	-2.385833	 28.452750	 0.000004	-5.797788	-61.424900	-178.925100	-9.975503	-52.435440	-3.831332	-0.430041	 67.746160	 18.977510	 2.384659	 28.388700	-0.000001	-8.973769	 11.127160	-0.480355	 0.010115	 21.525920	-1.076619	-5.409902	-10.607750	 1.333026	-93.713350	 75.664450	 162.810500	 10.657260	 11.893170	-58.384940	 17.005280	-6.098521	-14.971140	-4.957354	-43.546850	-10.006640	-2.027600	 6.559038	 9.033609	-5.188889	 0.308190	 3.541030	-5.234859	 0.342567	 0.430617	-1.668497	-14.266630	-1.355612	-4.494230	 2.600153	-2.578456	 93.907350	 69.400440	-164.779600	-22.382900	 16.793910	 56.891250	-20.775920	-18.730810	 53.875630	-16.756380	-38.447300	 3.283071	 1.803333	 3.979147	-15.098590	 4.898592	 3.004813	-9.310344	 5.224449	 0.395017	 2.014677
-0.014831	 0.211407	 1.207585	 2.762231	 22.094580	-3.229405	 17.930160	-53.019870	-170.104800	 3.574985	-44.994350	 2.824440	 18.414180	 66.181690	-24.859000	-2.385833	 28.452750	 0.000004	-8.710341	-55.983940	 179.398000	-8.279247	-47.796200	-2.321828	-0.494332	 66.560930	 17.610540	 2.384659	 28.388700	-0.000001	-15.510430	 9.589044	-0.574906	 0.592715	 21.077390	-1.516353	-5.943660	-12.473040	 0.654181	-94.371260	 73.904640	 164.756800	 12.835060	 12.954300	-58.595480	 20.434000	-7.558047	-16.360830	-2.198976	-36.293700	-13.032070	-2.027600	 6.559038	 9.033609	-5.188889	 0.308190	 3.541030	-5.234859	 0.342567	 0.430617	-1.791829	-15.218720	-0.980743	-4.782625	 3.870638	-2.442565	 93.993580	 67.549860	-166.491200	-24.191230	 17.639240	 53.771780	-20.276280	-22.781330	 60.147000	-17.793770	-30.725680	 6.788865	 1.803333	 3.979147	-15.098590	 4.898592	 3.004813	-9.310344	 5.224449	 0.395017	 2.014677
